<?xml version="1.0" encoding="UTF-8"?>
<svg width="7px" height="12px" viewBox="0 0 7 12" version="1.1" xmlns="http://www.w3.org/2000/svg" xmlns:xlink="http://www.w3.org/1999/xlink">
    <title>路径</title>
    <defs>
        <linearGradient x1="100%" y1="50%" x2="0%" y2="50%" id="linearGradient-1">
            <stop stop-color="#07A081" offset="0%"></stop>
            <stop stop-color="#56FF6D" offset="100%"></stop>
        </linearGradient>
    </defs>
    <g id="风评大屏" stroke="none" stroke-width="1" fill="none" fill-rule="evenodd">
        <g id="全球--1205" transform="translate(-1505.000000, -205.000000)" fill="url(#linearGradient-1)" fill-rule="nonzero">
            <g id="编组-13" transform="translate(382.000000, 102.000000)">
                <g id="编组-40" transform="translate(872.000000, 67.000000)">
                    <g id="编组-38" transform="translate(91.618705, 26.000000)">
                        <g id="编组-37" transform="translate(134.374101, 6.000000)">
                            <g id="编组" transform="translate(25.449640, 4.000000)">
                                <path d="M8.16844176,4.45247372 L8.1619115,4.45247372 L8.1619115,4.45171164 L7.45533771,4.45171164 L7.45533771,4.45094956 L3.08790192,4.45094956 C2.94946048,4.4334217 2.84236426,4.36788277 2.82146744,4.28557807 L2.82146744,3.25829344 C2.82146744,3.25295887 2.82146744,3.24838639 2.82016139,3.24305182 C2.82016139,3.24076558 2.82016139,3.23847934 2.81885534,3.23543102 C2.81885534,3.23314478 2.81885534,3.23009645 2.81754929,3.22781021 C2.81754929,3.22476189 2.81624324,3.22171357 2.81624324,3.21866525 C2.81624324,3.216379 2.81493718,3.21485484 2.81493718,3.2125686 C2.81363113,3.20952028 2.81363113,3.20570988 2.81232508,3.20266155 C2.81232508,3.20113739 2.81101903,3.19961323 2.81101903,3.19732699 C2.80971298,3.19427867 2.80840693,3.19046826 2.80710088,3.18741994 C2.80710088,3.18589578 2.80579482,3.18437162 2.80579482,3.18284746 L2.80187667,3.17370249 C2.80057062,3.17217833 2.80057062,3.16989209 2.79926457,3.16836793 C2.79795852,3.1653196 2.79665246,3.16227128 2.79404036,3.15998504 C2.79273431,3.1576988 2.79142826,3.15617464 2.79012221,3.1538884 C2.78881616,3.15160215 2.78620405,3.14855383 2.784898,3.14626759 L2.78097985,3.13940886 C2.7796738,3.13712262 2.77706169,3.13483638 2.77575564,3.13255014 C2.77444959,3.1302639 2.77183749,3.12721558 2.77053144,3.12492933 C2.76922539,3.12340517 2.76791933,3.12111893 2.76530723,3.11959477 C2.76269513,3.11654645 2.76008303,3.11426021 2.75877698,3.11121188 C2.75747092,3.10968772 2.75616487,3.10816356 2.75355277,3.1066394 C2.75094067,3.10359108 2.74832856,3.10130484 2.74571646,3.09825651 C2.74441041,3.09673235 2.74310436,3.09520819 2.74049226,3.09368403 C2.73788015,3.09063571 2.733962,3.08834947 2.7313499,3.08530114 C2.73004384,3.08377698 2.72743174,3.08225282 2.72612569,3.08072866 C2.72351359,3.07768034 2.71959543,3.0753941 2.71567728,3.07234577 C2.71306518,3.07082161 2.71175913,3.06929745 2.70914702,3.06777329 C2.70653492,3.06548705 2.70261677,3.06320081 2.70000466,3.06091456 C2.69739256,3.05862832 2.69347441,3.05710416 2.6908623,3.05481792 C2.6882502,3.05329376 2.6856381,3.05100752 2.683026,3.04948336 C2.67649574,3.04567295 2.67127153,3.04186255 2.66474128,3.03805215 C2.65821102,3.03424174 2.65168076,3.03119342 2.64515051,3.02738302 C2.6425384,3.02585886 2.63862025,3.0243347 2.63600815,3.02281054 C2.63208999,3.02128637 2.62947789,3.01900013 2.62555974,3.01747597 C2.62164158,3.01518973 2.61772343,3.01366557 2.61380527,3.01214141 C2.61119317,3.01061725 2.60858107,3.00985517 2.60596896,3.008331 C2.60074476,3.00604476 2.59682661,3.0045206 2.5916024,3.00223436 C2.5889903,3.00147228 2.58637819,2.99994812 2.58376609,2.99918604 C2.57854189,2.99766188 2.57462373,2.99537563 2.56939953,2.99385147 C2.56678742,2.99308939 2.56417532,2.99232731 2.56156322,2.99080315 C2.55633901,2.98927899 2.55242086,2.98775483 2.54719665,2.98623067 C2.54458455,2.98546859 2.54197245,2.98470651 2.53936034,2.98318234 C2.53413614,2.98165818 2.53021799,2.98013402 2.52499378,2.97937194 C2.52238168,2.97860986 2.51846352,2.97784778 2.51585142,2.97632362 C2.51193327,2.97479946 2.50670906,2.97403738 2.50279091,2.9732753 C2.49887275,2.97251322 2.4949546,2.97098906 2.49103644,2.97022697 L2.47928198,2.96794073 C2.47536383,2.96717865 2.47013962,2.96565449 2.46622147,2.96489241 C2.46230331,2.96413033 2.45969121,2.96336825 2.45577306,2.96260617 C2.45054885,2.96184409 2.44532465,2.96031993 2.44140649,2.95955785 C2.43879439,2.95879577 2.43487623,2.95879577 2.43226413,2.95803369 L2.41659152,2.95574744 C2.41397941,2.95498536 2.41136731,2.95498536 2.40744916,2.95422328 C2.40222495,2.9534612 2.39569469,2.95269912 2.39047049,2.95193704 C2.38785839,2.95193704 2.38524628,2.95117496 2.38132813,2.95117496 C2.37610392,2.95041288 2.36957367,2.9496508 2.36434946,2.9496508 C2.36043131,2.9496508 2.3578192,2.94888872 2.35390105,2.94888872 C2.34867684,2.94812664 2.34345264,2.94812664 2.33822843,2.94812664 C2.33431028,2.94812664 2.32908607,2.94736456 2.32516792,2.94736456 C2.32124977,2.94736456 2.31733161,2.94660248 2.31341346,2.94660248 C2.29643479,2.9458404 2.27815007,2.9458404 2.25986535,2.94660248 C2.2559472,2.94660248 2.25202904,2.94660248 2.24811089,2.94736456 C2.24419273,2.94736456 2.23896853,2.94736456 2.23505038,2.94812664 C2.22982617,2.94812664 2.22460196,2.94888872 2.21937776,2.94888872 C2.2154596,2.94888872 2.2128475,2.9496508 2.20892935,2.9496508 C2.20370514,2.95041288 2.19717489,2.95041288 2.19195068,2.95117496 C2.18933858,2.95117496 2.18672647,2.95193704 2.18280832,2.95193704 C2.17758411,2.95269912 2.17105386,2.9534612 2.16582965,2.95422328 C2.16321755,2.95498536 2.16060545,2.95498536 2.15668729,2.95574744 L2.14101468,2.95803369 C2.13840257,2.95879577 2.13448442,2.95879577 2.13187232,2.95955785 C2.12664811,2.96031993 2.12142391,2.96108201 2.11750575,2.96260617 C2.1135876,2.96336825 2.11097549,2.96413033 2.10705734,2.96489241 C2.10313919,2.96565449 2.09791498,2.96717865 2.09399683,2.96794073 C2.09007867,2.96870281 2.08616052,2.96946489 2.08224236,2.97098906 C2.07832421,2.97175114 2.07440606,2.9732753 2.0704879,2.97403738 C2.06656975,2.97479946 2.06134554,2.97632362 2.05742739,2.9770857 C2.05481529,2.97784778 2.05089713,2.97860986 2.04828503,2.98013402 C2.04306082,2.98165818 2.03914267,2.98318234 2.03391846,2.98470651 C2.03130636,2.98546859 2.02869426,2.98623067 2.02608216,2.98775483 C2.02085795,2.98927899 2.01563374,2.99080315 2.01171559,2.99232731 C2.00910349,2.99308939 2.00649139,2.99385147 2.00387928,2.99537563 C1.99865508,2.9968998 1.99343087,2.99918604 1.98951272,3.0007102 C1.98690061,3.00147228 1.98428851,3.00299644 1.98167641,3.00375852 C1.9764522,3.00528268 1.97253405,3.00756892 1.96730984,3.00985517 C1.96469774,3.01137933 1.96208564,3.01214141 1.95947354,3.01366557 C1.95555538,3.01518973 1.95163723,3.01747597 1.94641302,3.01900013 C1.94249487,3.02052429 1.93988277,3.02204845 1.93596461,3.0243347 C1.93335251,3.02585886 1.92943435,3.02738302 1.92682225,3.02890718 C1.92029199,3.0319555 1.91376174,3.03576591 1.90853753,3.03957631 L-2.77757479,5.77239729 L-2.78932925,5.77925602 C-2.89381336,5.84022247 -2.94605542,5.92024093 -2.94605542,6.00025939 C-2.94605542,6.08027785 -2.89381336,6.16029631 -2.78932925,6.22126276 L-2.77757479,6.22812149 L1.90853753,8.96246663 C2.01432769,9.02419516 2.15407519,9.05467838 2.29251664,9.05396908 L2.29774084,9.05396908 C2.59290845,9.05396908 2.8332219,8.91445556 2.8332219,8.74146326 L2.8332219,7.52137224 L8.35390105,7.52137224 C8.71698333,7.47793365 9.00039648,7.30417927 9.05394458,7.08851047 L9.05394458,4.91810496 C9.00692674,4.65671131 8.62817184,4.45247372 8.16844176,4.45247372 Z" id="路径" transform="translate(3.053945, 6.000000) scale(1, -1) rotate(90.000000) translate(-3.053945, -6.000000) "></path>
                            </g>
                        </g>
                    </g>
                </g>
            </g>
        </g>
    </g>
</svg>