<?xml version="1.0" encoding="UTF-8"?>
<svg width="17px" height="17px" viewBox="0 0 17 17" version="1.1" xmlns="http://www.w3.org/2000/svg" xmlns:xlink="http://www.w3.org/1999/xlink">
    <title>形状</title>
    <g id="系统驾驶舱首页" stroke="none" stroke-width="1" fill="none" fill-rule="evenodd" opacity="0.9">
        <g id="驾驶舱" transform="translate(-25.000000, -37.000000)" fill="#FFFFFF" fill-rule="nonzero">
            <g id="目录" transform="translate(25.000000, 34.000000)">
                <path d="M6,6.86616289 C6.00337287,5.57834503 5.10272544,4.44735328 3.80025331,4.10383376 C2.49778118,3.76031424 1.11506489,4.28908197 0.423113321,5.39529366 C-0.268838253,6.50150536 -0.0991821794,7.9120372 0.837480546,8.84037025 C0.692893827,9.41341485 0.620634024,10.0008622 0.62223583,10.5902359 C0.624831283,13.2026688 2.04612959,15.6277238 4.37892874,17 L4.9809413,14.6572312 C3.7057197,13.6518395 2.96617181,12.1578013 2.9630221,10.5806212 C2.96910774,10.2871557 2.99947066,9.99460449 3.05382847,9.7056884 C4.68591058,9.67947327 5.99502509,8.41202316 5.9966273,6.85654823 L6,6.86616289 Z M8.26313555,5.27499526 C9.2746238,5.27601279 10.2677583,5.53452873 11.141371,6.02420873 C11.0079468,6.35959697 10.9387107,6.71538108 10.9369992,7.07441623 C10.9307917,8.35346443 11.7943229,9.48664606 13.0655347,9.86761863 C14.3367465,10.2485912 15.7179589,9.78814229 16.4701133,8.73264875 C17.2222677,7.67715521 17.1692318,6.27378222 16.3393841,5.27344618 C15.5095364,4.27311014 14.0972025,3.91005997 12.8580936,4.37855646 C10.5468491,2.8435168 7.57164649,2.57100073 5,3.65878808 L6.39313407,5.58907602 C6.99192625,5.3764313 7.6247399,5.26571693 8.26313555,5.26190856 L8.26313555,5.27499526 Z M13.6359944,10.7954334 C13.5475132,12.8138526 12.4109459,14.6318997 10.6523634,15.5680337 C10.0133787,14.2969052 8.59256557,13.6486976 7.23548339,14.0091745 C5.87840122,14.3696513 4.94971556,15.6419479 5.00210917,17.0688904 C5.05450277,18.495833 6.07389681,19.6939836 7.45362583,19.9502946 C8.83335484,20.2066055 10.2026678,19.4522028 10.7466542,18.1360492 C13.894957,16.9810979 15.9953617,13.9419732 16,10.5348604 C16,10.3565736 16,10.1920012 15.9797948,10 L13.6359944,10.7954334 Z" id="形状"></path>
            </g>
        </g>
    </g>
</svg>