<?xml version="1.0" encoding="UTF-8"?>
<svg width="22px" height="24px" viewBox="0 0 22 24" version="1.1" xmlns="http://www.w3.org/2000/svg" xmlns:xlink="http://www.w3.org/1999/xlink">
    <title>形状</title>
    <g id="多点触控" stroke="none" stroke-width="1" fill="none" fill-rule="evenodd" opacity="0.8">
        <g transform="translate(-4844.000000, -1054.000000)" fill-rule="nonzero" id="编组-44" stroke="#FFE009">
            <g transform="translate(4619.000000, 1051.000000)">
                <path d="M235.977778,4 C240.804444,5.5235 245.355556,6.2858 245.402222,6.2385 C245.724444,6.2858 246,6.6675 246,6.9997 L246,15.5247 C246,15.6193 245.907778,17.4761 244.666667,19.6662 C243.977778,20.9532 242.505556,22.095 241.355556,23.0949 C239.931111,24.3335 238.23,25.2861 236.206667,25.9527 L236.023333,26 L235.838889,25.9527 C233.816667,25.2861 232.068889,24.3335 230.643333,23.0949 C229.494444,22.095 228.023333,20.9521 227.333333,19.6662 C226.137778,17.5234 226,15.6666 226,15.572 L226,7.0481 C226,6.6664 226.275556,6.3331 226.597778,6.2858 C226.597778,6.2858 231.838889,5.5235 235.976667,4 L235.977778,4 Z M235.481111,9.4285 C234.936667,9.4285 234.342222,9.8245 234.193333,10.3712 L232.658889,14.934 C232.51,15.4807 232.807778,15.8767 233.352222,15.8767 L235.085556,15.8767 L234.094444,19.994 C233.945556,20.5396 234.144444,20.5891 234.491111,20.192 L239.144444,14.736 C239.837778,13.9429 239.54,13.2477 238.451111,13.2477 L236.322222,13.2477 L237.56,10.3217 C237.757778,9.8256 237.511111,9.4285 236.965556,9.4285 L235.481111,9.4285 Z" id="形状"></path>
            </g>
        </g>
    </g>
</svg>