<?xml version="1.0" encoding="UTF-8"?>
<svg width="60px" height="30px" viewBox="0 0 60 30" version="1.1" xmlns="http://www.w3.org/2000/svg" xmlns:xlink="http://www.w3.org/1999/xlink">
    <!-- Generator: Sketch 52.2 (67145) - http://www.bohemiancoding.com/sketch -->
    <title>形状结合</title>
    <desc>Created with Sketch.</desc>
    <g id="数据推送" stroke="none" stroke-width="1" fill="none" fill-rule="evenodd" opacity="0.980000019">
        <g id="数据推送-风评报告-有数据-" transform="translate(-16.000000, -21.000000)" fill="#FFFFFF">
            <path d="M24.3299734,41.9254773 C24.1678065,41.9512291 24.0060839,41.9754017 23.8439689,41.9974694 C23.6990644,42.0172763 23.4923217,41.9174151 23.3741829,41.8167282 C21.9325218,40.5853776 21.7248561,39.0899305 22.2915527,37.4673868 C22.4706066,36.9548744 22.7908732,36.4819763 23.1120628,36 C22.2369252,38.5510352 23.563108,40.1868749 25.7679929,41.4992293 C26.1475665,41.383149 26.5239593,41.2617661 26.8966495,41.1271 C27.5243982,40.9002024 28.0773949,41.0049243 28.6898537,41.2230951 C29.9504485,41.6730117 31.2424729,42.0114187 32.5217557,42.39346 C32.6712599,42.4380638 32.8241624,42.4690925 32.9753655,42.5059391 C32.9830109,42.5427857 32.9915054,42.5796323 33,42.6164789 C32.2771119,43.0751223 31.5550731,43.5366747 30.8279375,43.9856216 C30.7701745,44.0214984 30.669089,43.9817429 30.592638,43.9584715 C28.9344975,43.4513457 27.2449268,43.0421544 25.7065596,41.908636 C25.7065596,42.3081309 25.7065596,42.6300541 25.7065596,42.9868844 C25.0380368,42.8404676 24.43832,42.6872633 24,42.0249938 C24.110187,41.9913228 24.2201821,41.9582115 24.3299734,41.9254773 Z M24.2623786,30.1627642 C23.367456,31.4152131 22.4212576,32.6749014 21.5471659,33.9844631 C20.7275543,35.2119753 20.2300189,36.5834752 20.1330758,38.0667867 C20.0096933,39.9458627 20.7908477,41.4766336 22.0847601,42.7652801 C23.5116694,44.1858495 25.2991114,44.9789861 27.1754847,45.5830896 C29.9331603,46.4711467 32.7789662,46.8331257 35.6640307,46.9626332 C38.4040806,47.0849017 41.1305103,46.9441319 43.8537339,46.6448957 C48.5687051,46.1268628 53.1610904,45.0731004 57.6357052,43.5021097 C61.5190432,42.1386535 65.2397428,40.4333288 68.6295543,38.061961 C70.6349168,36.6590889 72.4287674,35.0301812 73.7923846,32.972529 C74.5126472,31.8857862 75.0686691,30.7194079 75.2753744,29.4138687 C75.4468284,28.3295391 75.3731213,27.2540578 75.1295588,26.1874249 C75.1159403,26.127095 75.1079295,26.0659607 75.122349,26 C75.7769189,27.0175645 76.0653458,28.1340702 75.9876297,29.3390597 C75.8249876,31.8753293 74.8275135,34.0914482 73.3453248,36.1072714 C71.5490673,38.5502303 69.2192254,40.3882826 66.6618464,41.9536421 C62.3602877,44.5864389 57.696595,46.3834668 52.9175315,47.9045848 C49.591814,48.9631737 46.2036083,49.7683773 42.7577153,50.3153676 C39.3246416,50.8599455 35.8659295,51.1060933 32.392796,50.9572784 C28.9340839,50.8092696 25.5258465,50.3242159 22.2786467,49.040396 C20.4655673,48.3236769 18.8519823,47.2948501 17.6534109,45.7158158 C15.7906577,43.2623992 15.5583143,40.5845547 16.6727614,37.7619202 C17.3257265,36.10888 18.4658115,34.7969057 19.729279,33.5878941 C21.1201345,32.2550053 22.6680226,31.1304556 24.2623786,30.1627642 Z M39.5579993,35.9455681 C40.094676,34.9437962 40.6120423,33.9748955 41.1310179,33.0068175 C42.2623036,30.8964393 43.3992219,28.7885261 44.5216577,26.6732176 C44.6544185,26.4233909 44.8064904,26.340389 45.080864,26.3436765 C46.3674402,26.3584689 47.6540165,26.3502506 49.0202494,26.3502506 C47.814939,28.6044434 46.6289392,30.8216558 45.3785706,33.1596721 C45.9603059,33.1276215 46.4358323,33.1243349 46.9049213,33.0709178 C49.1071472,32.8219131 50.9786782,31.8045262 52.6933079,30.4337663 C53.5293016,29.765645 54.2124181,28.9693222 54.616333,27.9535795 C54.7265654,27.6766334 54.8223152,27.3873602 54.877028,27.0939784 C55.1192164,25.8012896 54.4272494,24.8743012 52.9789453,24.7140504 C51.9715705,24.6022858 50.9472985,24.641732 49.9302664,24.6450192 C46.2572079,24.6573462 42.5841494,24.6844656 38.9110903,24.6959707 C38.7574092,24.6967926 38.5385544,24.6458411 38.4605069,24.5373636 C37.6486523,23.3999948 36.8601314,22.24619 36,21.002809 C36.2075902,21.002809 36.3282822,21.002809 36.4497787,21.002809 C41.5574627,21.0060962 46.6651468,21.0348592 51.772831,21.0003436 C53.7553983,20.9871949 55.6229053,21.3504297 57.3994904,22.2544079 C58.426177,22.7770717 59.3876896,23.5199774 60,24.3836874 C59.2492962,24.9416885 58.4824991,25.4791447 57.7519112,26.0634433 C56.6029229,26.9813918 55.6333652,28.062057 54.9076037,29.3711815 C54.2969027,30.4732127 54.1448307,31.608117 54.544723,32.8013674 C54.6807032,33.2065142 54.5938039,33.4275783 54.2462111,33.6732954 C52.2266321,35.0966508 49.9672794,35.8370907 47.5510261,35.9398157 C44.9690223,36.0491148 42.3789725,35.9751529 39.7929461,35.9800837 C39.7301863,35.9800837 39.6682312,35.9620038 39.5579993,35.9455681 Z M73,21.0007281 C72.4978828,21.9633435 72.0417796,22.8500918 71.5679166,23.7262348 C71.5267461,23.802102 71.3709443,23.8477854 71.2668076,23.8510485 C67.9077889,23.9554678 65.0686471,25.2541829 62.767142,27.7080362 C61.9195164,28.6119161 61.5780444,29.7507391 61.7249663,31.0070331 C61.8008488,31.6523117 62.2028657,32.0863048 62.7178987,32.4142469 C63.6809631,33.0277101 64.7788402,33.1427339 65.8767168,33.2463378 C65.9961915,33.2577587 66.1172804,33.2585741 66.2375627,33.2659162 C66.246443,33.2667325 66.2537082,33.282232 66.2916495,33.3213887 C65.8767168,34.1494018 65.4625907,34.9953607 65.0226331,35.8266363 C64.9701614,35.9261615 64.7731891,35.9971336 64.6424123,35.9987653 C62.3102312,36.0207907 60.0337513,35.7556642 57.9437491,34.5988936 C57.6749306,34.4504226 57.4254865,34.2603469 57.1849225,34.067008 C55.8924953,33.0285255 55.820649,31.6653643 56.2016768,30.1928887 C56.6311404,28.5287068 57.611157,27.2291761 58.8712936,26.119721 C61.1841003,24.0827288 63.9263706,22.8819069 66.8228285,22.0000534 C68.6771098,21.4355366 70.5652964,21.0398854 72.5124132,21.0023597 C72.6448042,20.9982808 72.7780027,21.0007281 73,21.0007281 Z M36.5157138,38.2733682 C36.0120564,39.1830519 35.5440847,40.0354714 35.0655698,40.8813462 C35.0298841,40.9451551 34.9163381,41.0016022 34.8409116,40.9999651 C32.649474,40.9590623 30.4677694,40.8338988 28.4369187,39.8865846 C27.4141939,39.4096548 26.6063955,38.6734 26.1992521,37.5829247 C25.7896756,36.487541 26.0694852,35.4371513 26.5155587,34.4252092 C27.2203547,32.8259005 28.424753,31.6339858 29.7394531,30.5500551 C32.2512523,28.4811788 35.1612729,27.2859918 38.3227175,26.6961699 C39.854777,26.4106666 41.40549,26.2290571 42.9480938,26 C42.965125,26.0392669 42.9829678,26.0785339 43,26.1178008 C42.5036423,26.9996705 42.0137725,27.8848124 41.4987603,28.7560473 C41.4468531,28.8443979 41.2473364,28.8713939 41.1135147,28.8787564 C38.8206975,29.0161908 36.6925219,29.6616407 34.7792718,30.9631757 C33.506746,31.8286843 32.577291,33.009964 31.8822277,34.368763 C31.1968965,35.7095653 31.7305627,37.1370817 33.0906815,37.7800778 C34.0095927,38.2144678 34.9950091,38.2398281 35.9796153,38.2717321 C36.1369572,38.2782767 36.2959214,38.2733682 36.5157138,38.2733682 Z M50.3179754,43.7867596 C50.3131258,43.8593925 50.3058505,43.9263114 50.3042343,43.9932314 C50.2832179,44.8158518 50.2872599,44.8370699 49.5015806,44.9872307 C48.7134776,45.1382073 47.9156744,45.2410348 47.0798804,45.3707933 C47.0798804,45.0149773 47.0798804,44.7073114 47.0798804,44.4127026 C45.2110641,44.6346796 43.3761978,44.8525751 41.515465,45.0737364 C41.515465,45.3454947 41.515465,45.652345 41.515465,46 C40.6772461,46 39.859235,46 39,46 C39.2764425,45.6907017 39.5254024,45.3397819 39.8479186,45.082713 C39.9942229,44.9660127 40.2884483,45.005185 40.5115422,45.0255864 C41.1589996,45.0851611 41.6237787,44.8844032 41.8145401,44.2070475 C41.9471031,43.7377949 42.2534531,43.6284388 42.7392484,43.6137483 C43.987281,43.5762084 45.2320805,43.4382889 46.4784968,43.3419899 C46.7177567,43.32322 46.9570167,43.3093472 47.2221432,43.2922086 C47.2221432,43.6219093 47.2221432,43.9287595 47.2221432,44.2853922 C48.0700616,44.1686908 48.8880726,44.0634152 49.7020426,43.93284 C49.7852987,43.9197829 49.8944207,43.7606454 49.905737,43.6594502 C49.9348354,43.4064618 49.9154361,43.1469449 49.9154361,42.9061979 C51.7834443,42.4589791 53.6037614,42.0231871 55.4596437,41.5792331 C55.5259253,41.7604054 55.5986736,41.9578995 55.6843545,42.1913012 C56.4344677,41.9750371 57.1635644,41.7489796 57.9023603,41.5588307 C58.1658696,41.4910951 58.2766088,41.3694975 58.2264941,41.1107963 C58.1383874,40.6586813 58.3493562,40.4652677 58.7502803,40.2775669 C60.4889575,39.4622917 62.2058108,38.5996833 63.9509548,37.7436034 C64.0843266,37.8994771 64.2589207,38.1034998 64.4609989,38.3401663 C65.1084558,37.945178 65.7623794,37.5746726 66.3791218,37.1486729 C66.5262337,37.046661 66.6272738,36.7536846 66.6135317,36.5586385 C66.5698837,35.9375933 66.8463265,35.5515816 67.3410113,35.230858 C68.5656035,34.4351686 69.6948158,33.519514 70.7140954,32.4610435 C71.6436532,31.4956075 72.4180151,30.4355048 72.8884522,29.1656666 C72.9110848,29.1052758 72.9490767,29.0497816 73,29 C72.8585463,29.9442177 72.5505784,30.8280448 72.0817585,31.6571936 C71.0972344,33.3954684 69.6544001,34.7093755 68.074151,35.8453747 C67.3927432,36.3350296 67.1373179,36.8924202 67.1219606,37.6489368 C67.1171091,37.8994771 67.0265787,38.0463732 66.8261176,38.1720512 C66.0315489,38.6714994 65.2426362,39.18074 64.3850172,39.7291539 C64.3850172,39.2639819 64.3850172,38.8910273 64.3850172,38.456051 C63.9452966,38.7057746 63.5694309,38.9514188 63.1685089,39.1415676 C61.7353737,39.8221881 60.297387,40.4921996 58.8505098,41.1426244 C58.6112503,41.2503481 58.5352685,41.362969 58.5360771,41.6167731 C58.5401181,42.5879219 58.5336514,42.5952662 57.6162184,42.8939565 C56.9938179,43.0963468 56.3633355,43.2742543 55.6706134,43.4831741 C55.6706134,43.074312 55.6706134,42.7168647 55.6706134,42.3602321 C53.8648459,42.8425427 52.1100018,43.3093472 50.3179754,43.7867596 Z M43,37.1378307 C42.4118511,38.1321519 41.8244941,39.1264732 41.2355537,40.1200248 C40.9007125,40.6849102 40.5666628,41.2497954 40.2207395,41.808524 C40.1692864,41.8916405 40.0552981,41.9909186 39.9690152,41.9916884 C38.6676468,42.0032324 37.3654869,41.9993843 36,41.9993843 C36.4401221,41.1843796 36.8533303,40.4186292 37.2681217,39.6536483 C37.6908289,38.8740448 38.1238268,38.0990592 38.533077,37.3125296 C38.647857,37.0916548 38.7697613,36.9969942 39.0396924,37.0000726 C40.344227,37.0170038 41.6495531,37.0077686 42.9548796,37.0077686 C42.9699196,37.0516357 42.98496,37.0947332 43,37.1378307 Z M33.1182173,45.1703972 C33.150526,45.4136845 33.1820065,45.6536021 33.2275704,46 C32.1232706,45.900259 31.0653633,45.8045615 30.0066275,45.708864 C30.0041422,45.6765156 30.0024853,45.6448411 30,45.6124926 C30.6138679,45.3220305 31.2020545,44.9816979 31.8523735,44.762672 C32.1572363,44.6595613 32.5805649,44.8058032 32.950874,44.8064772 C33.1347859,44.8071511 33.3932567,44.7842376 33.4901831,44.6878662 C34.1322178,44.0469627 34.9142572,43.9451999 35.9017479,44.0220274 C37.2380084,44.125812 38.5958081,44.0476366 39.944495,44.0476366 C39.9627203,44.0880722 39.9809462,44.1285077 40,44.1682693 C39.5957255,44.5369068 39.1947645,44.90824 38.7805486,45.2687904 C38.7308425,45.3119216 38.6024356,45.3065302 38.5113078,45.3038346 C36.7351502,45.2620511 34.9589926,45.2168981 33.1182173,45.1703972 Z" id="形状结合"></path>
        </g>
    </g>
</svg>