<?xml version="1.0" encoding="UTF-8"?>
<svg width="17px" height="21px" viewBox="0 0 17 21" version="1.1" xmlns="http://www.w3.org/2000/svg" xmlns:xlink="http://www.w3.org/1999/xlink">
    <title>编组</title>
    <defs>
        <filter id="filter-1">
            <feColorMatrix in="SourceGraphic" type="matrix" values="0 0 0 0 1.000000 0 0 0 0 0.905882 0 0 0 0 0.701961 0 0 0 1.000000 0"></feColorMatrix>
        </filter>
        <linearGradient x1="38.5733166%" y1="93.8024581%" x2="33.6435511%" y2="0%" id="linearGradient-2">
            <stop stop-color="#FFA83B" offset="0%"></stop>
            <stop stop-color="#FFEA00" offset="100%"></stop>
        </linearGradient>
        <linearGradient x1="28.0932223%" y1="93.8024581%" x2="18.6420744%" y2="0%" id="linearGradient-3">
            <stop stop-color="#FFA83B" offset="0%"></stop>
            <stop stop-color="#FFEA00" offset="100%"></stop>
        </linearGradient>
        <linearGradient x1="28.0932223%" y1="57.4267143%" x2="18.6420744%" y2="41.5224913%" id="linearGradient-4">
            <stop stop-color="#FFA83B" offset="0%"></stop>
            <stop stop-color="#FFEA00" offset="100%"></stop>
        </linearGradient>
    </defs>
    <g id="首页" stroke="none" stroke-width="1" fill="none" fill-rule="evenodd" opacity="0.9">
        <g transform="translate(-1018.000000, -1294.000000)" id="编组-57">
            <g transform="translate(981.000000, 1184.000000)">
                <g id="编组" transform="translate(37.000000, 103.000000)" filter="url(#filter-1)">
                    <g transform="translate(0.000000, 7.000000)">
                        <path d="M8.44444444,0 C4.88888889,0 2,2.85365854 2,6.42073171 C2,9.93292683 5.5,14.3780488 8.5,18 C11.4444444,14.3231707 15,9.98780488 15,6.42073171 C14.9444444,2.85365854 12.0555556,0 8.44444444,0 Z M8.44444444,10.6463415 C6.05555556,10.6463415 4.16666667,8.72560976 4.16666667,6.42073171 C4.16666667,4.06097561 6.11111111,2.19512195 8.44444444,2.19512195 C10.8333333,2.19512195 12.7222222,4.11585366 12.7222222,6.42073171 C12.7777778,8.7804878 10.8333333,10.6463415 8.44444444,10.6463415 Z" id="形状" fill="url(#linearGradient-2)" fill-rule="nonzero"></path>
                        <path d="M6,6 C6,6.54545455 6.22727273,7.04545455 6.59090909,7.40909091 C6.95454545,7.77272727 7.5,8 8,8 C8.54545455,8 9.04545455,7.77272727 9.40909091,7.40909091 C9.77272727,7.04545455 10,6.5 10,6 C10,5.45454545 9.77272727,4.95454545 9.40909091,4.59090909 C9.04545455,4.22727273 8.5,4 8,4 C7.45454545,4 6.95454545,4.22727273 6.59090909,4.59090909 C6.22727273,4.95454545 6,5.45454545 6,6 Z" id="路径" fill="url(#linearGradient-3)" fill-rule="nonzero"></path>
                        <path d="M8.41639344,21 C4.23606557,21 0,19.7027995 0,17.2705487 C0,15.9192982 1.39344262,14.7842478 3.84590164,14.0815976 C4.29180328,13.9734975 4.73770492,14.1896976 4.84918033,14.6220978 C4.96065574,15.0544979 4.73770492,15.4868981 4.29180328,15.5949981 C2.45245902,16.0814483 1.61639344,16.7840985 1.61639344,17.2705487 C1.61639344,18.135349 4.29180328,19.4325495 8.47213115,19.4325495 C12.652459,19.4325495 15.3278689,18.135349 15.3278689,17.2705487 C15.3278689,16.7840985 14.3245902,16.0273983 12.4852459,15.5409481 C12.0393443,15.4328481 11.8163934,15.0004479 11.9278689,14.5680478 C12.0393443,14.1356476 12.4852459,13.9194475 12.9311475,14.0275476 C15.495082,14.6761478 17,15.8652482 17,17.2705487 C16.8327869,19.7027995 12.5967213,21 8.41639344,21 L8.41639344,21 Z" id="路径" fill="url(#linearGradient-4)" fill-rule="nonzero"></path>
                    </g>
                </g>
            </g>
        </g>
    </g>
</svg>