<?xml version="1.0" encoding="UTF-8"?>
<svg width="27px" height="28px" viewBox="0 0 27 28" version="1.1" xmlns="http://www.w3.org/2000/svg" xmlns:xlink="http://www.w3.org/1999/xlink">
    <title>编组</title>
    <g id="首页" stroke="none" stroke-width="1" fill="none" fill-rule="evenodd" opacity="0.8">
        <g transform="translate(-5266.000000, -52.000000)" fill="#FFFFFF" fill-rule="nonzero" id="编组-29">
            <g transform="translate(4823.000000, 43.000000)">
                <g id="编组-5" transform="translate(443.000000, 5.000000)">
                    <g id="编组" transform="translate(-0.000000, 4.363636)">
                        <path d="M23.7374665,13.0908379 C23.7374665,11.9593314 24.4202779,10.9645038 25.476789,10.5564022 L26.0176991,10.347471 L25.8746384,9.78259992 C25.5631773,8.55036324 25.0775371,7.36950437 24.432579,6.27615901 L24.1369278,5.77497463 L23.6077249,6.01173673 C23.2587479,6.16842903 22.8808113,6.24915995 22.4986725,6.2486411 C21.7848035,6.25066437 21.0999174,5.96464834 20.5972297,5.45457747 C19.8020397,4.65436712 19.5857379,3.46546286 20.0463089,2.42575855 L20.2826037,1.89219013 L19.7830931,1.59470084 C18.6955257,0.946478145 17.5215179,0.457917121 16.2966433,0.143821589 L15.7363341,0 L15.5281199,0.543016138 C15.1199771,1.60707962 14.1310798,2.29462877 13.0091323,2.29462877 C11.8848661,2.29462877 10.8962798,1.60750648 10.4905972,0.544040589 L10.2829768,0 L9.72164966,0.143821589 C8.49711575,0.45720469 7.32366204,0.945964244 6.23723586,1.59512769 L5.73916756,1.89264544 L5.97444425,2.42518941 C6.43442148,3.46577588 6.21811963,4.65496472 5.42366492,5.45457747 C4.91620817,5.9653803 4.23975942,6.24673449 3.51916801,6.24673449 C3.13489218,6.24673449 2.76252158,6.16762408 2.41257578,6.0114237 L1.88467372,5.77582834 L1.58888115,6.27516301 C0.941727352,7.3681419 0.454899174,8.54948244 0.143484845,9.78257146 L0.000876631885,10.3464466 L0.540344583,10.5559469 C1.59727985,10.966695 2.28037404,11.9616649 2.28037404,13.0908379 C2.28037404,14.2222022 1.59756264,15.2170298 0.540768759,15.6254445 L0,15.8345179 L0.142919276,16.399389 C0.45445665,17.6315463 0.940092927,18.8123381 1.58497873,19.9056592 L1.8806299,20.4070143 L2.40997417,20.1699676 C2.75889077,20.0132393 3.13678701,19.932497 3.51888522,19.9330348 C4.23744058,19.9330348 4.91244714,20.2148158 5.42018667,20.7269846 C6.21551802,21.5272803 6.43167847,22.716213 5.97124878,23.7559173 L5.73495407,24.2894858 L6.23446458,24.5869751 C7.32198307,25.2352628 8.49600726,25.7237827 9.72091442,26.037712 L10.2812236,26.1813913 L10.4894378,25.638489 C10.8980331,24.5745963 11.8867607,23.8871894 13.0088496,23.8871894 C14.1332572,23.8871894 15.1218435,24.5743117 15.5275544,25.6376353 L15.7353161,26.1818182 L16.2966433,26.0378543 C17.5210895,25.7243407 18.694512,25.23569 19.7810571,24.5868328 L20.2792668,24.2891727 L20.0437073,23.7564865 C19.5837018,22.7159 19.7997209,21.5268535 20.5944584,20.7270984 C21.1019434,20.2162956 21.7782225,19.9349414 22.4986725,19.9349414 C22.8829483,19.9349414 23.2554886,20.0141941 23.6054344,20.1702522 L24.1334496,20.4059898 L24.4291007,19.9065129 C25.0762002,18.8135572 25.5630255,17.6322717 25.8744971,16.3992467 L26.0172749,15.8343756 L25.4766193,15.6252737 C24.4199951,15.2172006 23.7374665,14.2222022 23.7374665,13.0908379 L23.7374665,13.0908379 Z M23.5718396,18.7692011 C23.222288,18.6721483 22.8612846,18.6231841 22.4986725,18.6236437 C21.4298603,18.6236437 20.4263713,19.0413637 19.6727506,19.7998846 C18.6360627,20.8434021 18.2622499,22.3318446 18.6501454,23.7232772 C17.9611076,24.0936168 17.2375658,24.3949069 16.4899548,24.6229731 C15.7865567,23.362528 14.4758223,22.5758917 13.0088496,22.5758917 C11.5444784,22.5758917 10.2338855,23.3626703 9.52862097,24.6229731 C8.77937752,24.3947293 8.05423634,24.0929441 7.36365128,23.7219682 C7.74023537,22.3413208 7.3617849,20.8260434 6.34248825,19.8004537 C5.58915039,19.0403677 4.58650975,18.6217655 3.51916801,18.6217655 C3.15211375,18.6217655 2.79218567,18.6708538 2.44354068,18.768319 C2.07524507,18.0748092 1.77568905,17.3464975 1.54920649,16.5939209 C2.80160239,15.886082 3.58344492,14.5670724 3.58344492,13.0908379 C3.58344492,11.6170793 2.80160239,10.298212 1.54920649,9.58863713 C1.77574534,8.83522784 2.07605538,8.10631295 2.44571812,7.41261706 C2.79334508,7.5093708 3.15256621,7.55817452 3.51888522,7.55817452 C4.58752777,7.55817452 5.59118644,7.14045448 6.34480708,6.38193361 C7.38160809,5.33844452 7.75559057,3.85011589 7.36772338,2.45856945 C8.05664135,2.08806452 8.78015087,1.78674906 9.52777262,1.55887349 C10.2311425,2.81929016 11.5418768,3.60606881 13.0087082,3.60606881 C14.4732207,3.60606881 15.7836723,2.81943244 16.4889367,1.55887349 C17.2381605,1.78722119 17.9632954,2.08904189 18.6539064,2.4599923 C18.2771527,3.84049743 18.6557728,5.35577483 19.6749281,6.38150676 C20.428379,7.14162121 21.4311894,7.56019497 22.4983897,7.56019497 C22.8619236,7.56065131 23.2238302,7.51134828 23.5741584,7.41364151 C23.9423441,8.10719228 24.241841,8.83550794 24.4683795,9.58806799 C23.2159553,10.2955939 22.4344239,11.6144897 22.4344239,13.0908379 C22.4344239,14.5670724 23.2159836,15.886082 24.4683795,16.5938925 C24.2416712,17.3470126 23.941367,18.0756749 23.5718679,18.7692011 L23.5718396,18.7692011 Z" id="形状"></path>
                        <path d="M13.0087731,8.72727273 C10.6178192,8.72727273 8.67256637,10.6847962 8.67256637,13.0908322 C8.67256637,15.497022 10.6178192,17.4545455 13.0087731,17.4545455 C15.3998799,17.4545455 17.3451327,15.497022 17.3451327,13.0908322 C17.3451327,10.6847962 15.3998799,8.72727273 13.0087731,8.72727273 Z M13.0087731,16.0367325 C11.3946239,16.0367325 10.0814919,14.7151634 10.0814919,13.0908322 C10.0814919,11.4665009 11.3947768,10.1450857 13.0087731,10.1450857 C14.6230752,10.1450857 15.9362072,11.4666548 15.9362072,13.0908322 C15.9362072,14.7153172 14.6230752,16.0367325 13.0087731,16.0367325 Z" id="形状"></path>
                    </g>
                </g>
            </g>
        </g>
    </g>
</svg>