<?xml version="1.0" encoding="UTF-8"?>
<svg width="17px" height="17px" viewBox="0 0 17 17" version="1.1" xmlns="http://www.w3.org/2000/svg" xmlns:xlink="http://www.w3.org/1999/xlink">
    <title>编组</title>
    <g id="系统驾驶舱首页" stroke="none" stroke-width="1" fill="none" fill-rule="evenodd" fill-opacity="0.9" opacity="0.9">
        <g id="驾驶舱" transform="translate(-1495.000000, -37.000000)" fill="#FFFFFF" fill-rule="nonzero">
            <g id="编组-29" transform="translate(1495.000000, 30.000000)">
                <g id="时间" transform="translate(0.000000, 4.000000)">
                    <g id="编组" transform="translate(0.000000, 3.000000)">
                        <path d="M8.49986458,0 C3.81302591,0 0,3.81307327 0,8.5 C0,13.1869267 3.81302589,17 8.49986458,17 C13.1868387,17 17,13.1869074 17,8.5 C17,3.81307327 13.1868387,0 8.49986458,0 Z M8.49986458,15.6577634 C4.55308157,15.6577634 1.34215619,12.4467727 1.34215619,8.50000002 C1.34215619,4.55316932 4.55308157,1.34215925 8.49986458,1.34215925 C12.4468024,1.34215925 15.6577471,4.55316934 15.6577471,8.50000002 C15.6577471,12.446792 12.4468023,15.6577634 8.49986458,15.6577634 Z" id="形状"></path>
                        <path d="M9.24066761,5 C8.82131191,5 8.48131333,5.26082954 8.48131333,5.5825921 L8.48131333,8.834799 L5.75939807,8.834799 C5.33997672,8.834799 5,9.09564535 5,9.4174079 C5,9.73917046 5.3399767,10 5.75939807,10 L10,10 L10,5.5825921 C10,5.26082954 9.6600233,5 9.24066761,5 Z" id="路径"></path>
                    </g>
                </g>
            </g>
        </g>
    </g>
</svg>