<?xml version="1.0" encoding="UTF-8"?>
<svg width="8px" height="12px" viewBox="0 0 8 12" version="1.1" xmlns="http://www.w3.org/2000/svg" xmlns:xlink="http://www.w3.org/1999/xlink">
    <title>编组</title>
    <defs>
        <linearGradient x1="120.565432%" y1="50%" x2="-27.9082889%" y2="50%" id="linearGradient-1">
            <stop stop-color="#FF0972" offset="0%"></stop>
            <stop stop-color="#F0FF00" offset="100%"></stop>
        </linearGradient>
    </defs>
    <g id="风评大屏" stroke="none" stroke-width="1" fill="none" fill-rule="evenodd">
        <g id="全球--1205" transform="translate(-923.000000, -205.000000)" fill="url(#linearGradient-1)" fill-rule="nonzero">
            <g id="编组-13" transform="translate(382.000000, 102.000000)">
                <g id="编组-40" transform="translate(290.000000, 67.000000)">
                    <g id="编组-38" transform="translate(91.618705, 26.000000)">
                        <g id="编组-37" transform="translate(136.410072, 6.000000)">
                            <g id="编组" transform="translate(23.413669, 4.000000)">
                                <path d="M8.16847323,4.45248677 L8.16194298,4.45248677 L8.16194298,4.4517247 L7.45536919,4.4517247 L7.45536919,4.45096263 L3.0879334,4.45096263 C2.94949195,4.43343499 2.84239574,4.36789686 2.82149892,4.28559317 L2.82149892,3.2583211 C2.82149892,3.2529866 2.82149892,3.24841417 2.82019287,3.24307967 C2.82019287,3.24079346 2.82019287,3.23850724 2.81888682,3.23545896 C2.81888682,3.23317275 2.81888682,3.23012446 2.81758077,3.22783825 C2.81758077,3.22478996 2.81627472,3.22174168 2.81627472,3.21869339 C2.81627472,3.21640718 2.81496866,3.21488304 2.81496866,3.21259682 C2.81366261,3.20954854 2.81366261,3.20573818 2.81235656,3.20268989 C2.81235656,3.20116575 2.81105051,3.19964161 2.81105051,3.1973554 C2.80974446,3.19430711 2.80843841,3.19049675 2.80713236,3.18744847 C2.80713236,3.18592433 2.8058263,3.18440018 2.8058263,3.18287604 L2.80190815,3.17373119 C2.8006021,3.17220704 2.8006021,3.16992083 2.79929605,3.16839669 C2.79799,3.1653484 2.79668394,3.16230012 2.79407184,3.1600139 C2.79276579,3.15772769 2.79145974,3.15620355 2.79015369,3.15391733 C2.78884764,3.15163112 2.78623553,3.14858283 2.78492948,3.14629662 L2.78101133,3.13943798 C2.77970528,3.13715177 2.77709317,3.13486555 2.77578712,3.13257934 C2.77448107,3.13029312 2.77186897,3.12724484 2.77056292,3.12495863 C2.76925687,3.12343448 2.76795081,3.12114827 2.76533871,3.11962413 C2.76272661,3.11657584 2.76011451,3.11428963 2.75880845,3.11124134 C2.7575024,3.1097172 2.75619635,3.10819306 2.75358425,3.10666892 C2.75097215,3.10362063 2.74836004,3.10133442 2.74574794,3.09828613 C2.74444189,3.09676199 2.74313584,3.09523785 2.74052374,3.0937137 C2.73791163,3.09066542 2.73399348,3.0883792 2.73138138,3.08533092 C2.73007532,3.08380678 2.72746322,3.08228263 2.72615717,3.08075849 C2.72354507,3.07771021 2.71962691,3.07542399 2.71570876,3.07237571 C2.71309666,3.07085157 2.71179061,3.06932742 2.7091785,3.06780328 C2.7065664,3.06551707 2.70264825,3.06323085 2.70003614,3.06094464 C2.69742404,3.05865843 2.69350589,3.05713428 2.69089378,3.05484807 C2.68828168,3.05332393 2.68566958,3.05103771 2.68305748,3.04951357 C2.67652722,3.04570321 2.67130301,3.04189286 2.66477276,3.0380825 C2.6582425,3.03427214 2.65171224,3.03122386 2.64518199,3.0274135 C2.64256988,3.02588936 2.63865173,3.02436522 2.63603963,3.02284108 C2.63212147,3.02131693 2.62950937,3.01903072 2.62559121,3.01750658 C2.62167306,3.01522036 2.61775491,3.01369622 2.61383675,3.01217208 C2.61122465,3.01064794 2.60861255,3.00988586 2.60600044,3.00836172 C2.60077624,3.00607551 2.59685808,3.00455137 2.59163388,3.00226515 C2.58902178,3.00150308 2.58640967,2.99997894 2.58379757,2.99921687 C2.57857337,2.99769272 2.57465521,2.99540651 2.56943101,2.99388237 C2.5668189,2.9931203 2.5642068,2.99235823 2.5615947,2.99083408 C2.55637049,2.98930994 2.55245234,2.9877858 2.54722813,2.98626165 C2.54461603,2.98549958 2.54200393,2.98473751 2.53939182,2.98321337 C2.53416762,2.98168923 2.53024946,2.98016508 2.52502526,2.97940301 C2.52241316,2.97864094 2.518495,2.97787887 2.5158829,2.97635473 C2.51196475,2.97483059 2.50674054,2.97406851 2.50282239,2.97330644 C2.49890423,2.97254437 2.49498608,2.97102023 2.49106792,2.97025816 L2.47931346,2.96797194 C2.47539531,2.96720987 2.4701711,2.96568573 2.46625295,2.96492366 C2.46233479,2.96416159 2.45972269,2.96339952 2.45580454,2.96263745 C2.45058033,2.96187537 2.44535613,2.96035123 2.44143797,2.95958916 C2.43882587,2.95882709 2.43490771,2.95882709 2.43229561,2.95806502 L2.416623,2.9557788 C2.41401089,2.95501673 2.41139879,2.95501673 2.40748064,2.95425466 C2.40225643,2.95349259 2.39572617,2.95273052 2.39050197,2.95196845 C2.38788987,2.95196845 2.38527776,2.95120638 2.38135961,2.95120638 C2.3761354,2.95044431 2.36960515,2.94968223 2.36438094,2.94968223 C2.36046279,2.94968223 2.35785068,2.94892016 2.35393253,2.94892016 C2.34870832,2.94815809 2.34348412,2.94815809 2.33825991,2.94815809 C2.33434176,2.94815809 2.32911755,2.94739602 2.3251994,2.94739602 C2.32128125,2.94739602 2.31736309,2.94663395 2.31344494,2.94663395 C2.29646627,2.94587188 2.27818155,2.94587188 2.25989683,2.94663395 C2.25597868,2.94663395 2.25206052,2.94663395 2.24814237,2.94739602 C2.24422421,2.94739602 2.23900001,2.94739602 2.23508185,2.94815809 C2.22985765,2.94815809 2.22463344,2.94892016 2.21940924,2.94892016 C2.21549108,2.94892016 2.21287898,2.94968223 2.20896083,2.94968223 C2.20373662,2.95044431 2.19720637,2.95044431 2.19198216,2.95120638 C2.18937006,2.95120638 2.18675795,2.95196845 2.1828398,2.95196845 C2.17761559,2.95273052 2.17108534,2.95349259 2.16586113,2.95425466 C2.16324903,2.95501673 2.16063693,2.95501673 2.15671877,2.9557788 L2.14104616,2.95806502 C2.13843405,2.95882709 2.1345159,2.95882709 2.1319038,2.95958916 C2.12667959,2.96035123 2.12145539,2.9611133 2.11753723,2.96263745 C2.11361908,2.96339952 2.11100697,2.96416159 2.10708882,2.96492366 C2.10317067,2.96568573 2.09794646,2.96720987 2.09402831,2.96797194 C2.09011015,2.96873402 2.086192,2.96949609 2.08227384,2.97102023 C2.07835569,2.9717823 2.07443754,2.97330644 2.07051938,2.97406851 C2.06660123,2.97483059 2.06137702,2.97635473 2.05745887,2.9771168 C2.05484677,2.97787887 2.05092861,2.97864094 2.04831651,2.98016508 C2.0430923,2.98168923 2.03917415,2.98321337 2.03394994,2.98473751 C2.03133784,2.98549958 2.02872574,2.98626165 2.02611364,2.9877858 C2.02088943,2.98930994 2.01566522,2.99083408 2.01174707,2.99235823 C2.00913497,2.9931203 2.00652286,2.99388237 2.00391076,2.99540651 C1.99868656,2.99693065 1.99346235,2.99921687 1.9895442,3.00074101 C1.98693209,3.00150308 1.98431999,3.00302722 1.98170789,3.00378929 C1.97648368,3.00531344 1.97256553,3.00759965 1.96734132,3.00988586 C1.96472922,3.01141001 1.96211712,3.01217208 1.95950502,3.01369622 C1.95558686,3.01522036 1.95166871,3.01750658 1.9464445,3.01903072 C1.94252635,3.02055486 1.93991424,3.022079 1.93599609,3.02436522 C1.93338399,3.02588936 1.92946583,3.0274135 1.92685373,3.02893765 C1.92032347,3.03198593 1.91379322,3.03579629 1.90856901,3.03960664 L-2.77754331,5.77239421 L-2.78929777,5.77925285 C-2.89378188,5.84021855 -2.94602394,5.92023603 -2.94602394,6.00025352 C-2.94602394,6.080271 -2.89378188,6.16028848 -2.78929777,6.22125418 L-2.77754331,6.22811283 L1.90856901,8.96242453 C2.01435917,9.0241523 2.15410667,9.05463515 2.29254812,9.05387308 L2.29777232,9.05387308 C2.59293993,9.05387308 2.83325338,8.91441404 2.83325338,8.74142386 L2.83325338,7.52134777 L8.35393253,7.52134777 C8.71701481,7.4779097 9.00042796,7.30415745 9.05397606,7.08849129 L9.05397606,4.91811232 C9.00695822,4.65672187 8.62820332,4.45248677 8.16847323,4.45248677 Z" id="路径" transform="translate(3.053976, 6.000000) rotate(90.000000) translate(-3.053976, -6.000000) "></path>
                            </g>
                        </g>
                    </g>
                </g>
            </g>
        </g>
    </g>
</svg>